<svg xmlns="http://www.w3.org/2000/svg" width="222" height="81.837" viewBox="0 0 222 81.837"><defs><style>      .cls-1 {        fill: #d22730;      }      .cls-2 {        fill: #000;      }      .cls-3 {        fill: none;      }    </style></defs><g id="Group_43" data-name="Group 43" transform="translate(298 -4996)"><g id="Group_33" data-name="Group 33" transform="translate(-298 4996)"><path id="Path_3" data-name="Path 3" class="cls-1" d="M0,56.57V18.878c3.461-2,5.192-3,8.652-5a4.086,4.086,0,0,1,3.682-.533,4.942,4.942,0,0,1,2.521,3.018,17.148,17.148,0,0,1,.914,6.1,26.789,26.789,0,0,1-.455,4.949,24.183,24.183,0,0,1-1.3,4.532,16.836,16.836,0,0,1-1.986,3.681c1.682,4.629,2.521,6.943,4.2,11.569l-5.261,3.038c-1.381-4.248-2.069-6.372-3.45-10.619-.155.088-.3.177-.45.26s-.29.168-.435.251L4.6,41.3v12.61C2.759,54.973,1.839,55.5,0,56.564M8.465,31.723a4.1,4.1,0,0,0,1.378-1.447,8.729,8.729,0,0,0,.978-2.353,10.886,10.886,0,0,0,.356-2.812,6.025,6.025,0,0,0-.362-2.215,2.158,2.158,0,0,0-.986-1.218,1.381,1.381,0,0,0-1.361.122c-1.549.895-2.323,1.339-3.869,2.234v9.924c1.546-.9,2.323-1.34,3.869-2.235" transform="translate(0 -0.106)"/><path id="Path_4" data-name="Path 4" class="cls-1" d="M18.766,45.718V8.025C24.325,4.817,27.107,3.209,32.666,0V7.788l-9.3,5.371v7.123c3.2-1.845,6.242-3.59,9.437-5.435v7.315c-3.195,1.845-6.241,3.591-9.437,5.436v7.65L32.8,29.8v7.816l-14.029,8.1" transform="translate(-0.152 0.001)"/><path id="Path_5" data-name="Path 5" class="cls-1" d="M39.791,37.692V0c2.95,1.7,4.425,2.554,7.374,4.258a14.8,14.8,0,0,1,5.112,5.309,30.392,30.392,0,0,1,3.428,8.6,44.2,44.2,0,0,1,1.217,10.542,29.18,29.18,0,0,1-1.212,9.18Q54.5,41.475,52.3,42.559T47.2,41.975l-7.415-4.281M47.055,34.1a3.205,3.205,0,0,0,3.01.423,4.1,4.1,0,0,0,1.919-2.673,18.6,18.6,0,0,0,.663-5.493A28.662,28.662,0,0,0,52,20.1,16.647,16.647,0,0,0,50.1,15.115a8.661,8.661,0,0,0-3.057-3.137l-3.066-1.771V32.323l3.08,1.775" transform="translate(-0.323 0.001)"/><path id="Path_6" data-name="Path 6" class="cls-1" d="M59.641,49.152V11.46l12.834,7.41v7.788L63.883,21.7v7.123c2.949,1.7,5.764,3.137,8.713,4.838v7.316c-2.949-1.7-5.764-3.135-8.713-4.839v7.65C67.369,45.8,69.111,46.8,72.6,48.815v7.816c-5.181-2.991-7.771-4.488-12.955-7.479" transform="translate(-0.484 -0.093)"/><path id="Path_7" data-name="Path 7" class="cls-1" d="M3.04,63.351Q19.361,53.927,35.681,44.5q10.635,6.139,21.266,12.279c-2.707,1.563-4.06,2.345-6.77,3.908l-14.236-8.22c-3,1.729-4.493,2.594-7.487,4.326,4.888,2.822,9.332,6.067,14.22,8.89-2.543,1.469-3.817,2.2-6.36,3.673-4.889-2.823-9.333-6.07-14.221-8.89-4.811,2.778-7.216,4.165-12.025,6.943C7.257,65.79,5.851,64.977,3.04,63.357" transform="translate(-0.025 -0.361)"/><path id="Path_8" data-name="Path 8" class="cls-1" d="M28.862,78.259Q45.183,68.835,61.5,59.413l7.027,4.06L35.89,82.319c-2.811-1.624-4.217-2.436-7.028-4.057" transform="translate(-0.234 -0.481)"/><path id="Path_9" data-name="Path 9" class="cls-1" d="M69.688,5.811a2.954,2.954,0,0,1-1.5-.39,2.9,2.9,0,0,1-1.074-1.057,2.817,2.817,0,0,1-.4-1.456,2.834,2.834,0,0,1,.4-1.461A2.877,2.877,0,0,1,68.191.39a3.063,3.063,0,0,1,2.991,0,2.907,2.907,0,0,1,1.077,1.057,2.826,2.826,0,0,1,.395,1.461,2.8,2.8,0,0,1-.395,1.453,2.893,2.893,0,0,1-1.077,1.06,2.951,2.951,0,0,1-1.494.39m0-.4a2.521,2.521,0,0,0,1.268-.328,2.426,2.426,0,0,0,.914-.9A2.483,2.483,0,0,0,72.2,2.908a2.5,2.5,0,0,0-.334-1.283,2.414,2.414,0,0,0-.914-.9,2.6,2.6,0,0,0-2.535,0,2.437,2.437,0,0,0-.912.9,2.471,2.471,0,0,0-.337,1.283,2.48,2.48,0,0,0,.337,1.279,2.452,2.452,0,0,0,.912.9,2.519,2.519,0,0,0,1.268.325m-1.224-.668V1.025h1.472a1.19,1.19,0,0,1,1.023.574,1.115,1.115,0,0,1,.16.589,1.13,1.13,0,0,1-.187.635,1.117,1.117,0,0,1-.5.412L71.19,4.75h-.514l-.7-1.413a.789.789,0,0,1-.085,0h-.947V4.75h-.484ZM69.9,2.95a.671.671,0,0,0,.37-.105.737.737,0,0,0,.268-.279.79.79,0,0,0,0-.765.754.754,0,0,0-.268-.282.674.674,0,0,0-.373-.105h-.952V2.947H69.9Z" transform="translate(-0.542 0.001)"/><path id="Path_10" data-name="Path 10" class="cls-2" d="M92.779,21.436h4.014l2.632,5.432h2.51l-2.864-5.874A3.789,3.789,0,0,0,100.73,19.7a5.271,5.271,0,0,0,.924-3.115,5.738,5.738,0,0,0-.42-2.226,4.085,4.085,0,0,0-1.265-1.67,4.465,4.465,0,0,0-2.107-.862,4.862,4.862,0,0,0-.623-.069c-.217-.011-.4-.016-.547-.016H90.58V26.867h2.2V21.436Zm0-7.626h3.833c.141,0,.3.008.467.022a2.724,2.724,0,0,1,.488.083,2.143,2.143,0,0,1,1.083.582,2.513,2.513,0,0,1,.588.978,3.6,3.6,0,0,1,.18,1.107,3.663,3.663,0,0,1-.18,1.114,2.5,2.5,0,0,1-.588.983,2.135,2.135,0,0,1-1.083.582,3.694,3.694,0,0,1-.488.074c-.172.014-.329.023-.467.023H92.779V13.81Z" transform="translate(-0.735 -0.095)"/><path id="Path_11" data-name="Path 11" class="cls-2" d="M105.994,26.471a5.806,5.806,0,0,0,2.97.74,5.5,5.5,0,0,0,2.993-.834,5.094,5.094,0,0,0,2.008-2.359l-2.154-.682a3.161,3.161,0,0,1-1.17,1.34,3.308,3.308,0,0,1-1.781.466,2.9,2.9,0,0,1-2.394-1.025,4.082,4.082,0,0,1-.792-2.275h8.44a7.984,7.984,0,0,0-.478-3.518,4.853,4.853,0,0,0-1.823-2.284,5.243,5.243,0,0,0-2.952-.8,5.452,5.452,0,0,0-2.911.746A5.1,5.1,0,0,0,104,18.095a7,7,0,0,0-.7,3.226,6.445,6.445,0,0,0,.709,3.082,5.129,5.129,0,0,0,1.986,2.069m.467-8.252a2.977,2.977,0,0,1,2.478-1.041,2.638,2.638,0,0,1,2.223.945,3.992,3.992,0,0,1,.7,2h-6.143a3.929,3.929,0,0,1,.746-1.911" transform="translate(-0.839 -0.123)"/><path id="Path_12" data-name="Path 12" class="cls-2" d="M117.911,26.423a4.722,4.722,0,0,0,2.737.787,4.617,4.617,0,0,0,2.732-.793,5.035,5.035,0,0,0,.389-.322V27.18a3.417,3.417,0,0,1-.331,1.639,2.211,2.211,0,0,1-1,.993,3.533,3.533,0,0,1-1.6.331,3.211,3.211,0,0,1-1.438-.336,2.28,2.28,0,0,1-1.05-1.061l-2.026,1.032a4.633,4.633,0,0,0,1.165,1.362,5.135,5.135,0,0,0,1.56.834,5.636,5.636,0,0,0,1.77.284,7.126,7.126,0,0,0,2.37-.367,4.162,4.162,0,0,0,1.723-1.114,3.953,3.953,0,0,0,.919-1.891,6.906,6.906,0,0,0,.116-.821c.022-.273.031-.56.031-.862V15.554h-1.944V16.58a4.617,4.617,0,0,0-.636-.559,4.541,4.541,0,0,0-2.7-.782,4.813,4.813,0,0,0-2.758.782,5.113,5.113,0,0,0-1.789,2.133,7.138,7.138,0,0,0-.63,3.062,7.233,7.233,0,0,0,.624,3.063,5.142,5.142,0,0,0,1.775,2.149m.274-7.229a3.158,3.158,0,0,1,1.043-1.438,2.892,2.892,0,0,1,1.8-.536,2.723,2.723,0,0,1,1.7.506,2.956,2.956,0,0,1,.989,1.408,6.957,6.957,0,0,1,0,4.158,2.93,2.93,0,0,1-1,1.417,2.853,2.853,0,0,1-1.765.514,2.705,2.705,0,0,1-1.737-.536,3.224,3.224,0,0,1-1.031-1.445,5.706,5.706,0,0,1-.342-2.032,5.614,5.614,0,0,1,.342-2.016" transform="translate(-0.938 -0.123)"/><path id="Path_13" data-name="Path 13" class="cls-2" d="M128.841,24.493a4.537,4.537,0,0,0,.762,1.339,3.647,3.647,0,0,0,1.3.992,4.62,4.62,0,0,0,1.975.378,4.91,4.91,0,0,0,2.616-.663,4.316,4.316,0,0,0,1.135-1.022V26.9h1.955V15.55h-2.217v5.9a5.626,5.626,0,0,1-.227,1.713,3.014,3.014,0,0,1-.618,1.135,2.333,2.333,0,0,1-.92.624,3.168,3.168,0,0,1-1.113.193,2.631,2.631,0,0,1-1.466-.367,2.515,2.515,0,0,1-.873-.967,4.175,4.175,0,0,1-.42-1.3,8.651,8.651,0,0,1-.111-1.362V15.548h-2.226v6.3a9.044,9.044,0,0,0,.094,1.218,7.048,7.048,0,0,0,.356,1.417" transform="translate(-1.042 -0.126)"/><rect id="Rectangle_1" data-name="Rectangle 1" class="cls-2" width="2.196" height="15.441" transform="translate(140.269 11.333)"/><path id="Path_14" data-name="Path 14" class="cls-2" d="M147.47,26.745a4.33,4.33,0,0,0,2.11.466,5.225,5.225,0,0,0,2.673-.635,4.569,4.569,0,0,0,1.414-1.326V26.9h1.944V19.912c0-.475-.023-.919-.063-1.334a3.415,3.415,0,0,0-.337-1.176,3.3,3.3,0,0,0-1.654-1.644,6.316,6.316,0,0,0-2.651-.519,5.223,5.223,0,0,0-3.145.862,4.226,4.226,0,0,0-1.6,2.32l2.049.629a2.227,2.227,0,0,1,1.041-1.37,3.32,3.32,0,0,1,1.638-.414,2.6,2.6,0,0,1,2,.646,2.6,2.6,0,0,1,.548,1.654l-1.282.18q-1.056.149-2.013.314a16.7,16.7,0,0,0-1.712.39,4.884,4.884,0,0,0-1.472.74,2.924,2.924,0,0,0-.9,1.108,3.515,3.515,0,0,0-.3,1.514,3.387,3.387,0,0,0,.436,1.7,3.219,3.219,0,0,0,1.286,1.24m.658-3.723a1.749,1.749,0,0,1,.557-.536,4,4,0,0,1,.8-.379,10.037,10.037,0,0,1,1.223-.287q.687-.121,1.538-.249c.362-.053.757-.113,1.171-.174-.006.187-.012.395-.02.638a3.923,3.923,0,0,1-.2,1.135,2.644,2.644,0,0,1-.536,1.072,3.145,3.145,0,0,1-1.083.845,3.605,3.605,0,0,1-1.607.331,2.635,2.635,0,0,1-1.155-.221,1.525,1.525,0,0,1-.671-.594,1.569,1.569,0,0,1-.221-.814,1.4,1.4,0,0,1,.2-.768" transform="translate(-1.183 -0.123)"/><path id="Path_15" data-name="Path 15" class="cls-2" d="M158.923,22.407c0,.616.008,1.168.025,1.654a3.351,3.351,0,0,0,.395,1.433,2.52,2.52,0,0,0,1.218,1.158,4.714,4.714,0,0,0,1.839.4,9.2,9.2,0,0,0,2.1-.18V25.012a8.032,8.032,0,0,1-1.938.068,1.5,1.5,0,0,1-1.2-.74,1.8,1.8,0,0,1-.215-.851c-.012-.336-.017-.731-.017-1.187v-5.01H164.5V15.527h-3.372V12.376H158.92v3.151h-2.173v1.765h2.173v5.115Z" transform="translate(-1.273 -0.1)"/><path id="Path_16" data-name="Path 16" class="cls-2" d="M174.036,26.377a5.1,5.1,0,0,0,2.009-2.359l-2.154-.681a3.173,3.173,0,0,1-1.171,1.339,3.3,3.3,0,0,1-1.781.467,2.9,2.9,0,0,1-2.393-1.025,4.1,4.1,0,0,1-.794-2.276h8.44a7.97,7.97,0,0,0-.477-3.518,4.857,4.857,0,0,0-1.823-2.284,5.249,5.249,0,0,0-2.953-.8,5.464,5.464,0,0,0-2.911.746,5.1,5.1,0,0,0-1.949,2.113,7,7,0,0,0-.7,3.226,6.442,6.442,0,0,0,.71,3.082,5.117,5.117,0,0,0,1.986,2.069,5.8,5.8,0,0,0,2.969.74,5.5,5.5,0,0,0,2.993-.834m-5.492-8.155a2.974,2.974,0,0,1,2.477-1.041,2.64,2.64,0,0,1,2.224.945,3.973,3.973,0,0,1,.7,2H167.8a3.92,3.92,0,0,1,.747-1.911" transform="translate(-1.343 -0.123)"/><path id="Path_17" data-name="Path 17" class="cls-2" d="M185.856,16.31a4.9,4.9,0,0,0-.384-.317,4.537,4.537,0,0,0-2.7-.782,4.806,4.806,0,0,0-2.758.782,5.123,5.123,0,0,0-1.79,2.133,7.166,7.166,0,0,0-.629,3.062,7.228,7.228,0,0,0,.624,3.063A5.139,5.139,0,0,0,179.99,26.4a4.73,4.73,0,0,0,2.737.788,4.622,4.622,0,0,0,2.732-.793,4.771,4.771,0,0,0,.652-.58v1.058h1.953V11.745h-2.207V16.31Zm-.064,6.957a2.94,2.94,0,0,1-1,1.416,2.857,2.857,0,0,1-1.765.517,2.71,2.71,0,0,1-1.738-.536,3.232,3.232,0,0,1-1.03-1.444,5.712,5.712,0,0,1-.342-2.033,5.6,5.6,0,0,1,.342-2.016,3.172,3.172,0,0,1,1.043-1.439,2.892,2.892,0,0,1,1.8-.536,2.731,2.731,0,0,1,1.7.506,2.96,2.96,0,0,1,.988,1.408,6.211,6.211,0,0,1,.32,2.079,6.3,6.3,0,0,1-.314,2.08" transform="translate(-1.442 -0.095)"/><path id="Path_18" data-name="Path 18" class="cls-2" d="M102.641,41.191a9.806,9.806,0,0,0-.619-3.535,6.576,6.576,0,0,0-1.834-2.662A5.476,5.476,0,0,0,97.2,33.723a8.645,8.645,0,0,0-1.1-.082c-.381-.009-.643-.011-.782-.011H90.583V48.756h4.736c.141,0,.4,0,.782-.012a9.246,9.246,0,0,0,1.1-.085,5.514,5.514,0,0,0,2.988-1.265,6.539,6.539,0,0,0,1.834-2.657,9.835,9.835,0,0,0,.619-3.546m-2.668,2.436a4.82,4.82,0,0,1-1.055,1.927,3.3,3.3,0,0,1-1.875,1,7.319,7.319,0,0,1-.873.083c-.328.014-.613.019-.851.019H92.829V35.715h2.491c.232,0,.514,0,.845.017a5.848,5.848,0,0,1,.879.088A3.254,3.254,0,0,1,98.9,36.8a4.814,4.814,0,0,1,1.066,1.911,9,9,0,0,1,.008,4.91" transform="translate(-0.735 -0.272)"/><path id="Path_19" data-name="Path 19" class="cls-2" d="M109.81,49.1a5.574,5.574,0,0,0,2.994-.834,5.068,5.068,0,0,0,2.008-2.359l-2.154-.682a3.161,3.161,0,0,1-1.17,1.34,3.308,3.308,0,0,1-1.781.466,2.9,2.9,0,0,1-2.394-1.025,4.1,4.1,0,0,1-.792-2.275h8.44a7.969,7.969,0,0,0-.478-3.518,4.847,4.847,0,0,0-1.823-2.284,5.243,5.243,0,0,0-2.952-.8,5.452,5.452,0,0,0-2.911.746,5.1,5.1,0,0,0-1.949,2.113,6.983,6.983,0,0,0-.7,3.226,6.445,6.445,0,0,0,.71,3.082,5.117,5.117,0,0,0,1.986,2.069,5.8,5.8,0,0,0,2.969.74m-2.5-8.992a2.977,2.977,0,0,1,2.478-1.041,2.638,2.638,0,0,1,2.223.945,3.992,3.992,0,0,1,.7,2h-6.143a3.929,3.929,0,0,1,.746-1.911" transform="translate(-0.845 -0.301)"/><path id="Path_20" data-name="Path 20" class="cls-2" d="M121.842,49.1a5.335,5.335,0,0,0,3.11-.887,4.886,4.886,0,0,0,1.84-2.546l-2.227-.525a3.04,3.04,0,0,1-1,1.4,2.806,2.806,0,0,1-1.718.489,2.726,2.726,0,0,1-2.348-1.082,4.711,4.711,0,0,1-.8-2.837,5.665,5.665,0,0,1,.348-2.016,2.992,2.992,0,0,1,1.03-1.393,2.92,2.92,0,0,1,1.776-.511,2.839,2.839,0,0,1,1.7.531,2.919,2.919,0,0,1,1.066,1.486l2.184-.63a4.332,4.332,0,0,0-1.737-2.532,5.4,5.4,0,0,0-3.179-.925,5.471,5.471,0,0,0-2.952.768,5.069,5.069,0,0,0-1.893,2.119,7.035,7.035,0,0,0-.67,3.1,7.185,7.185,0,0,0,.658,3.08,5.013,5.013,0,0,0,1.864,2.132,5.382,5.382,0,0,0,2.961.777" transform="translate(-0.945 -0.301)"/><path id="Path_21" data-name="Path 21" class="cls-2" d="M136.314,48.262a5.094,5.094,0,0,0,2.008-2.359l-2.154-.681A3.164,3.164,0,0,1,135,46.561a3.3,3.3,0,0,1-1.781.467A2.905,2.905,0,0,1,130.821,46a4.1,4.1,0,0,1-.793-2.276h8.44a7.969,7.969,0,0,0-.478-3.518,4.852,4.852,0,0,0-1.823-2.284,5.243,5.243,0,0,0-2.952-.8,5.461,5.461,0,0,0-2.911.746,5.1,5.1,0,0,0-1.949,2.113,6.983,6.983,0,0,0-.7,3.226,6.442,6.442,0,0,0,.71,3.082,5.117,5.117,0,0,0,1.986,2.069,5.8,5.8,0,0,0,2.969.74,5.5,5.5,0,0,0,2.994-.834m-5.493-8.155a2.977,2.977,0,0,1,2.478-1.041,2.638,2.638,0,0,1,2.223.945,3.992,3.992,0,0,1,.7,2h-6.143a3.929,3.929,0,0,1,.746-1.911" transform="translate(-1.036 -0.301)"/><path id="Path_22" data-name="Path 22" class="cls-2" d="M142.4,42.879a5.617,5.617,0,0,1,.226-1.712,3.012,3.012,0,0,1,.619-1.136,2.336,2.336,0,0,1,.919-.624,3.177,3.177,0,0,1,1.113-.2,2.636,2.636,0,0,1,1.467.368,2.527,2.527,0,0,1,.873.966,4.224,4.224,0,0,1,.42,1.3,8.616,8.616,0,0,1,.11,1.359v5.578h2.229v-6.3a9.042,9.042,0,0,0-.093-1.218,7.029,7.029,0,0,0-.357-1.416,4.583,4.583,0,0,0-.762-1.339,3.67,3.67,0,0,0-1.3-.995,4.616,4.616,0,0,0-1.975-.378,4.913,4.913,0,0,0-2.615.663,4.321,4.321,0,0,0-1.136,1.022V37.438h-1.963V48.784h2.226v-5.9Z" transform="translate(-1.138 -0.301)"/><path id="Path_23" data-name="Path 23" class="cls-2" d="M153.692,34.264v3.151h-2.174V39.18h2.174v5.115c0,.616.007,1.167.024,1.654a3.37,3.37,0,0,0,.395,1.433,2.5,2.5,0,0,0,1.218,1.154,4.75,4.75,0,0,0,1.839.4,9.421,9.421,0,0,0,2.1-.18V46.9a8.028,8.028,0,0,1-1.937.069,1.5,1.5,0,0,1-1.205-.74,1.8,1.8,0,0,1-.214-.851c-.013-.336-.018-.732-.018-1.187V39.18h3.372V37.415H155.9V34.264h-2.2Z" transform="translate(-1.23 -0.278)"/><path id="Path_24" data-name="Path 24" class="cls-2" d="M166.368,37.383a4.429,4.429,0,0,0-1.088.21,3.455,3.455,0,0,0-.961.488,3.072,3.072,0,0,0-.779.752,4.16,4.16,0,0,0-.274.43V37.44h-1.952V48.787h2.215V43.061a5.777,5.777,0,0,1,.138-1.277,3.471,3.471,0,0,1,.447-1.1,2.743,2.743,0,0,1,.845-.84,2.712,2.712,0,0,1,1.246-.43,3.564,3.564,0,0,1,1.234.083V37.443a4.3,4.3,0,0,0-1.071-.058" transform="translate(-1.31 -0.303)"/><path id="Path_25" data-name="Path 25" class="cls-2" d="M177.589,39.286a3.3,3.3,0,0,0-1.654-1.644,6.316,6.316,0,0,0-2.651-.519,5.22,5.22,0,0,0-3.145.861,4.23,4.23,0,0,0-1.6,2.32l2.049.63a2.22,2.22,0,0,1,1.041-1.37,3.316,3.316,0,0,1,1.638-.415,2.127,2.127,0,0,1,2.549,2.3c-.427.06-.853.121-1.282.18q-1.056.149-2.013.314a16.517,16.517,0,0,0-1.713.39,4.907,4.907,0,0,0-1.472.74,2.923,2.923,0,0,0-.9,1.108,3.515,3.515,0,0,0-.3,1.513,3.388,3.388,0,0,0,.436,1.7,3.2,3.2,0,0,0,1.286,1.24,4.324,4.324,0,0,0,2.11.467,5.223,5.223,0,0,0,2.673-.636,4.522,4.522,0,0,0,1.414-1.325v1.646h1.944V41.8a13.345,13.345,0,0,0-.064-1.334,3.447,3.447,0,0,0-.336-1.176m-1.812,4.631a3.922,3.922,0,0,1-.2,1.135,2.65,2.65,0,0,1-.536,1.072,3.146,3.146,0,0,1-1.083.845,3.606,3.606,0,0,1-1.607.331,2.6,2.6,0,0,1-1.155-.221,1.527,1.527,0,0,1-.672-.594,1.577,1.577,0,0,1-.22-.814,1.4,1.4,0,0,1,.2-.768,1.739,1.739,0,0,1,.557-.536,4.016,4.016,0,0,1,.8-.379,10.663,10.663,0,0,1,1.224-.29q.687-.121,1.538-.246l1.17-.174c0,.187-.011.395-.019.638" transform="translate(-1.365 -0.301)"/><rect id="Rectangle_2" data-name="Rectangle 2" class="cls-2" width="2.196" height="15.441" transform="translate(179.143 33.039)"/><rect id="Rectangle_3" data-name="Rectangle 3" class="cls-2" width="2.196" height="11.345" transform="translate(184.28 37.137)"/><rect id="Rectangle_4" data-name="Rectangle 4" class="cls-2" width="2.196" height="2.133" transform="translate(184.28 33.144)"/><path id="Path_26" data-name="Path 26" class="cls-2" d="M198.123,42.948a10.5,10.5,0,0,0-2.27-.814c-.889-.224-1.563-.418-2.015-.577a2.274,2.274,0,0,1-.919-.506.919.919,0,0,1-.235-.641,1.15,1.15,0,0,1,.619-1.025,2.868,2.868,0,0,1,1.618-.331,3.025,3.025,0,0,1,1.69.514,1.853,1.853,0,0,1,.768,1.292l2.249-.409a3.317,3.317,0,0,0-.757-1.76,4.114,4.114,0,0,0-1.648-1.159,6.168,6.168,0,0,0-2.32-.409,6.056,6.056,0,0,0-2.329.42,3.5,3.5,0,0,0-1.537,1.187,3.011,3.011,0,0,0-.548,1.8,2.649,2.649,0,0,0,.362,1.414,2.943,2.943,0,0,0,1.218,1.019,11.745,11.745,0,0,0,2.317.815q1.335.356,1.986.6a1.944,1.944,0,0,1,.856.508,1.125,1.125,0,0,1,.2.7,1.351,1.351,0,0,1-.582,1.155,2.719,2.719,0,0,1-1.613.421,3.336,3.336,0,0,1-1.9-.509,2.245,2.245,0,0,1-.972-1.392l-2.249.348a3.831,3.831,0,0,0,1.6,2.574,5.738,5.738,0,0,0,3.371.914,5.466,5.466,0,0,0,3.377-.955,3.164,3.164,0,0,0,1.224-2.637,2.89,2.89,0,0,0-.362-1.486,2.955,2.955,0,0,0-1.2-1.06" transform="translate(-1.543 -0.301)"/><path id="Path_27" data-name="Path 27" class="cls-2" d="M209.557,37.927a5.243,5.243,0,0,0-2.952-.8,5.461,5.461,0,0,0-2.911.746,5.114,5.114,0,0,0-1.95,2.11,7,7,0,0,0-.7,3.226,6.442,6.442,0,0,0,.709,3.082,5.148,5.148,0,0,0,1.986,2.069,5.806,5.806,0,0,0,2.97.74,5.5,5.5,0,0,0,2.993-.834,5.094,5.094,0,0,0,2.008-2.359l-2.154-.681a3.164,3.164,0,0,1-1.17,1.339,3.3,3.3,0,0,1-1.781.467A2.9,2.9,0,0,1,204.211,46a4.085,4.085,0,0,1-.792-2.276h8.44a7.983,7.983,0,0,0-.478-3.518,4.857,4.857,0,0,0-1.823-2.284m-6.092,4.091a3.933,3.933,0,0,1,.746-1.911,2.976,2.976,0,0,1,2.477-1.04,2.628,2.628,0,0,1,2.221.944,3.968,3.968,0,0,1,.7,2.008h-6.14Z" transform="translate(-1.632 -0.301)"/><path id="Path_28" data-name="Path 28" class="cls-2" d="M221.524,33.627v4.568a4.679,4.679,0,0,0-.384-.317,4.537,4.537,0,0,0-2.7-.782,4.806,4.806,0,0,0-2.758.782,5.126,5.126,0,0,0-1.79,2.132,7.8,7.8,0,0,0,0,6.126,5.139,5.139,0,0,0,1.775,2.148,4.73,4.73,0,0,0,2.737.788,4.629,4.629,0,0,0,2.732-.793,4.77,4.77,0,0,0,.652-.58v1.057h1.953V33.63h-2.207Zm-.064,11.522a2.94,2.94,0,0,1-1,1.416,2.857,2.857,0,0,1-1.765.514,2.71,2.71,0,0,1-1.738-.536,3.226,3.226,0,0,1-1.03-1.444,5.711,5.711,0,0,1-.342-2.032,5.607,5.607,0,0,1,.342-2.017,3.177,3.177,0,0,1,1.044-1.439,2.892,2.892,0,0,1,1.8-.536,2.731,2.731,0,0,1,1.7.506,2.96,2.96,0,0,1,.988,1.408,6.215,6.215,0,0,1,.32,2.079,6.3,6.3,0,0,1-.314,2.08" transform="translate(-1.731 -0.272)"/><path id="Path_29" data-name="Path 29" class="cls-2" d="M90.583,70.64h2.2V64.18h5.5V61.974h-5.5V57.71h6.763v-2.2H90.583Z" transform="translate(-0.735 -0.45)"/><rect id="Rectangle_5" data-name="Rectangle 5" class="cls-2" width="2.196" height="2.133" transform="translate(100.489 54.854)"/><rect id="Rectangle_6" data-name="Rectangle 6" class="cls-2" width="2.196" height="11.345" transform="translate(100.489 58.844)"/><path id="Path_30" data-name="Path 30" class="cls-2" d="M116.013,61.729a4.605,4.605,0,0,0-.762-1.339,3.687,3.687,0,0,0-1.3-.995,4.619,4.619,0,0,0-1.975-.378,4.919,4.919,0,0,0-2.616.663,4.333,4.333,0,0,0-1.135,1.022V59.323h-1.964V70.669h2.226v-5.9a5.615,5.615,0,0,1,.227-1.712,3.053,3.053,0,0,1,.618-1.136,2.333,2.333,0,0,1,.92-.624,3.168,3.168,0,0,1,1.113-.193,2.639,2.639,0,0,1,1.466.367,2.515,2.515,0,0,1,.873.967,4.173,4.173,0,0,1,.42,1.3,8.623,8.623,0,0,1,.111,1.359v5.578h2.226v-6.3a9.047,9.047,0,0,0-.094-1.218,7.024,7.024,0,0,0-.356-1.416" transform="translate(-0.863 -0.479)"/><path id="Path_31" data-name="Path 31" class="cls-2" d="M127.708,61.174a3.3,3.3,0,0,0-1.654-1.644,6.316,6.316,0,0,0-2.651-.519,5.221,5.221,0,0,0-3.145.861,4.234,4.234,0,0,0-1.6,2.32l2.049.63a2.222,2.222,0,0,1,1.04-1.37,3.326,3.326,0,0,1,1.638-.415,2.127,2.127,0,0,1,2.549,2.3l-1.282.18q-1.056.149-2.013.314a16.519,16.519,0,0,0-1.713.39,4.907,4.907,0,0,0-1.472.74,2.922,2.922,0,0,0-.9,1.108,3.514,3.514,0,0,0-.3,1.513,3.388,3.388,0,0,0,.436,1.7,3.2,3.2,0,0,0,1.286,1.24,4.324,4.324,0,0,0,2.11.467,5.229,5.229,0,0,0,2.674-.636,4.529,4.529,0,0,0,1.413-1.325v1.646h1.944V63.688a13.341,13.341,0,0,0-.063-1.334,3.427,3.427,0,0,0-.336-1.176M125.9,65.808a3.924,3.924,0,0,1-.2,1.135,2.651,2.651,0,0,1-.536,1.072,3.146,3.146,0,0,1-1.083.845,3.605,3.605,0,0,1-1.607.331,2.6,2.6,0,0,1-1.155-.221,1.533,1.533,0,0,1-.671-.594,1.577,1.577,0,0,1-.22-.814,1.4,1.4,0,0,1,.2-.768,1.739,1.739,0,0,1,.557-.536,4.016,4.016,0,0,1,.8-.379,10.072,10.072,0,0,1,1.224-.29c.458-.08.972-.163,1.538-.246l1.17-.174c0,.187-.011.395-.019.638" transform="translate(-0.96 -0.479)"/><path id="Path_32" data-name="Path 32" class="cls-2" d="M140.256,61.729a4.6,4.6,0,0,0-.762-1.339,3.687,3.687,0,0,0-1.3-.995,4.619,4.619,0,0,0-1.975-.378,4.919,4.919,0,0,0-2.616.663,4.332,4.332,0,0,0-1.135,1.022V59.323h-1.964V70.669h2.226v-5.9a5.615,5.615,0,0,1,.227-1.712,3.053,3.053,0,0,1,.618-1.136,2.333,2.333,0,0,1,.92-.624,3.168,3.168,0,0,1,1.113-.193,2.639,2.639,0,0,1,1.466.367,2.515,2.515,0,0,1,.873.967,4.172,4.172,0,0,1,.42,1.3,8.618,8.618,0,0,1,.111,1.359v5.578h2.226v-6.3a9.042,9.042,0,0,0-.094-1.218,7.024,7.024,0,0,0-.356-1.416" transform="translate(-1.059 -0.479)"/><path id="Path_33" data-name="Path 33" class="cls-2" d="M146.056,61.588a2.918,2.918,0,0,1,1.775-.508,2.85,2.85,0,0,1,1.7.53A2.932,2.932,0,0,1,150.6,63.1l2.185-.63a4.332,4.332,0,0,0-1.737-2.532,5.4,5.4,0,0,0-3.179-.925,5.472,5.472,0,0,0-2.953.768,5.076,5.076,0,0,0-1.892,2.116,7.044,7.044,0,0,0-.671,3.1,7.213,7.213,0,0,0,.658,3.079,5.036,5.036,0,0,0,1.865,2.133,5.386,5.386,0,0,0,2.96.776,5.463,5.463,0,0,0,3.11-.886,4.889,4.889,0,0,0,1.84-2.547l-2.226-.525a3.06,3.06,0,0,1-1,1.4,2.813,2.813,0,0,1-1.718.489,2.73,2.73,0,0,1-2.348-1.083,4.717,4.717,0,0,1-.8-2.836,5.715,5.715,0,0,1,.348-2.016,2.993,2.993,0,0,1,1.031-1.392" transform="translate(-1.156 -0.479)"/><path id="Path_34" data-name="Path 34" class="cls-2" d="M162.154,59.812a5.243,5.243,0,0,0-2.952-.8,5.461,5.461,0,0,0-2.911.746,5.115,5.115,0,0,0-1.95,2.11,7,7,0,0,0-.7,3.226,6.442,6.442,0,0,0,.709,3.082,5.148,5.148,0,0,0,1.986,2.069,5.806,5.806,0,0,0,2.97.74,5.5,5.5,0,0,0,2.993-.834,5.1,5.1,0,0,0,2.008-2.359l-2.154-.681a3.164,3.164,0,0,1-1.17,1.339,3.3,3.3,0,0,1-1.781.467,2.9,2.9,0,0,1-2.394-1.025,4.086,4.086,0,0,1-.793-2.276h8.44a7.984,7.984,0,0,0-.478-3.518,4.858,4.858,0,0,0-1.823-2.284M156.062,63.9a3.933,3.933,0,0,1,.746-1.911,2.976,2.976,0,0,1,2.477-1.04,2.628,2.628,0,0,1,2.221.944,3.972,3.972,0,0,1,.7,2.008h-6.14Z" transform="translate(-1.247 -0.479)"/><rect id="Rectangle_7" data-name="Rectangle 7" class="cls-3" width="221.999" height="81.836" transform="translate(0 0)"/></g></g></svg>